<svg xmlns="http://www.w3.org/2000/svg" viewBox="0 0 286.59 321.7"><defs><style>.a{fill:#0e93ef;}</style></defs><path class="a" d="M286.42,143.53l-.35-127.84a14.75,14.75,0,0,0-.17-2.21,15.31,15.31,0,0,0-1.26-4.3A15.73,15.73,0,0,0,270.35,0h-107V.11C134.32.11,82.63.07,61.07.05A23.71,23.71,0,0,0,44.22,7L7,44.37A23.78,23.78,0,0,0,0,61.16V250.91a14.29,14.29,0,0,0,4.1,10l3.77,3.84A14.29,14.29,0,0,0,18.09,269L36,269l10.08,0a9.5,9.5,0,0,1,6.85,2.88l1.46,1.5A9.5,9.5,0,0,1,57,280L57,310a10.68,10.68,0,0,0,6.45,9.83l2.33,1a10.67,10.67,0,0,0,11.65-2.14l42.42-41.37a9.39,9.39,0,0,1,3.1-2l14.33-5.76a9.54,9.54,0,0,1,3.58-.69l22.92.07,60.22.17A23.8,23.8,0,0,0,241,262l38.78-39.38a23.78,23.78,0,0,0,6.84-16.75ZM139.61,193.92c-4.15,4.23-6.88,4.42-11.08.19q-4.87-4.91-9.76-9.8c-17.28-17.31-34.69-34.48-52-51.75-5.54-5.51-5.56-6.17-.15-12,4.29-4.65,8.75-9.15,13.27-13.58,5.59-5.49,8.48-5.7,14-.13,11,11.07,21.79,22.41,32.57,33.72,5.33,5.59,5.23,5.65,10.92,0,28.69-28.65,57.46-57.22,86-86,3.84-3.87,6.52-4.15,10.11-.28q3.06,3.3,6.17,6.56c3.92,4.14,7.87,8.24,11.79,12.38a5.93,5.93,0,0,1,2,4.32c-.61,2.73-2.69,4.69-4.6,6.62-12.63,12.82-25.37,25.55-38.07,38.3C187,146.2,163.18,169.93,139.61,193.92Z"/></svg>