<svg xmlns="http://www.w3.org/2000/svg" viewBox="0 0 286.59 321.7"><defs><style>.a{fill:#4db8f4;}.b{fill:#0e93ef;}.c{fill:#0867aa;}.d{fill:#064d85;}</style></defs><path class="a" d="M171.36,0,0,175.15v-114A23.78,23.78,0,0,1,7,44.37L44.22,7a23.71,23.71,0,0,1,16.85-7c21.56,0,73.25.06,102.33.06V0Z"/><path class="b" d="M285.9,13.48,239.65,60.76q-3.1-3.25-6.17-6.56c-3.59-3.87-6.27-3.59-10.11.28-28.52,28.81-57.29,57.38-86,86-5.69,5.68-5.59,5.62-10.92,0-10.78-11.31-21.54-22.65-32.57-33.72-5.55-5.57-8.44-5.36-14,.13-4.52,4.43-9,8.93-13.27,13.58-5.41,5.86-5.39,6.52.15,12,17.33,17.27,34.74,34.44,52,51.75L36,269,18.09,269a14.29,14.29,0,0,1-10.22-4.26L4.1,260.91a14.29,14.29,0,0,1-4.1-10V175.15L171.36,0h99a15.73,15.73,0,0,1,14.29,9.17A15.31,15.31,0,0,1,285.9,13.48Z"/><path class="c" d="M286.42,143.53,163.74,268.92l-22.92-.07a9.54,9.54,0,0,0-3.58.69l-14.33,5.76a9.39,9.39,0,0,0-3.1,2L77.39,318.69a10.67,10.67,0,0,1-11.65,2.14l-2.33-1A10.68,10.68,0,0,1,57,310L57,280a9.5,9.5,0,0,0-2.69-6.65l-1.46-1.5A9.5,9.5,0,0,0,46,268.92L36,269l82.81-84.64q4.89,4.89,9.76,9.8c4.2,4.23,6.93,4,11.08-.19,23.57-24,47.4-47.72,71.14-71.54,12.7-12.75,25.44-25.48,38.07-38.3,1.91-1.93,4-3.89,4.6-6.62a5.93,5.93,0,0,0-2-4.32c-3.92-4.14-7.87-8.24-11.79-12.38L285.9,13.48a14.75,14.75,0,0,1,.17,2.21Z"/><path class="d" d="M286.59,205.87a23.78,23.78,0,0,1-6.84,16.75L241,262a23.8,23.8,0,0,1-17,7.09l-60.22-.17L286.42,143.53Z"/></svg>