<svg xmlns="http://www.w3.org/2000/svg" xmlns:xlink="http://www.w3.org/1999/xlink" viewBox="0 0 286.58 321.71"><defs><style>.a{fill:none;}.b{clip-path:url(#a);}.c{fill:#9fa5aa;}.d{fill:#767a80;}.e{fill:#4e555b;}.f{fill:#364047;}</style><clipPath id="a"><path class="a" d="M163.4,0h107a15.79,15.79,0,0,1,10.28,3.83h0a15.77,15.77,0,0,1,5.44,11.85l.51,190.18a23.77,23.77,0,0,1-6.83,16.75L241,262a23.74,23.74,0,0,1-17,7.09l-83.14-.23a9.48,9.48,0,0,0-3.57.68L122.9,275.3a9.61,9.61,0,0,0-3.09,2L77.39,318.7h0a10.7,10.7,0,0,1-11.66,2.14l-2.33-1A10.67,10.67,0,0,1,57,310L57,280a9.5,9.5,0,0,0-2.69-6.66l-1.45-1.5A9.5,9.5,0,0,0,46,268.92L18.09,269a14.23,14.23,0,0,1-10.22-4.26L4.1,260.91a14.23,14.23,0,0,1-4.1-10V61.17a23.78,23.78,0,0,1,7-16.8L44.21,7a23.79,23.79,0,0,1,16.85-7c21.56,0,73.26.07,102.34.07Zm90,77.47a6,6,0,0,0-2-4.33c-6-6.32-12-12.56-18-18.93-3.59-3.87-6.28-3.6-10.11.28-28.53,28.81-57.3,57.38-86,86-5.69,5.68-5.59,5.61-10.92,0-10.78-11.31-21.54-22.64-32.56-33.71-5.55-5.58-8.44-5.36-14,.12-4.52,4.43-9,8.93-13.26,13.58-5.41,5.87-5.39,6.52.15,12,20.59,20.52,41.31,40.9,61.78,61.54,4.2,4.24,6.93,4,11.08-.19,23.56-24,47.39-47.72,71.13-71.54,12.71-12.75,25.44-25.47,38.08-38.29C250.72,82.16,252.81,80.2,253.42,77.47Z"/></clipPath></defs><g class="b"><path d="M163.4,0h107a15.79,15.79,0,0,1,10.28,3.83h0a15.77,15.77,0,0,1,5.44,11.85l.51,190.18a23.77,23.77,0,0,1-6.83,16.75L241,262a23.74,23.74,0,0,1-17,7.09l-83.14-.23a9.48,9.48,0,0,0-3.57.68L122.9,275.3a9.61,9.61,0,0,0-3.09,2L77.39,318.7h0a10.7,10.7,0,0,1-11.66,2.14l-2.33-1A10.67,10.67,0,0,1,57,310L57,280a9.5,9.5,0,0,0-2.69-6.66l-1.45-1.5A9.5,9.5,0,0,0,46,268.92L18.09,269a14.23,14.23,0,0,1-10.22-4.26L4.1,260.91a14.23,14.23,0,0,1-4.1-10V61.17a23.78,23.78,0,0,1,7-16.8L44.21,7a23.79,23.79,0,0,1,16.85-7c21.56,0,73.26.07,102.34.07Zm90,77.47a6,6,0,0,0-2-4.33c-6-6.32-12-12.56-18-18.93-3.59-3.87-6.28-3.6-10.11.28-28.53,28.81-57.3,57.38-86,86-5.69,5.68-5.59,5.61-10.92,0-10.78-11.31-21.54-22.64-32.56-33.71-5.55-5.58-8.44-5.36-14,.12-4.52,4.43-9,8.93-13.26,13.58-5.41,5.87-5.39,6.52.15,12,20.59,20.52,41.31,40.9,61.78,61.54,4.2,4.24,6.93,4,11.08-.19,23.56-24,47.39-47.72,71.13-71.54,12.71-12.75,25.44-25.47,38.08-38.29C250.72,82.16,252.81,80.2,253.42,77.47Z"/><polygon class="c" points="-118.06 295.82 -212.57 261.85 122.5 -80.63 217.01 -46.66 -118.06 295.82"/><polygon class="d" points="-23.55 329.79 -118.06 295.82 217.01 -46.66 311.51 -12.69 -23.55 329.79"/><polygon class="e" points="70.96 363.76 -23.55 329.79 311.51 -12.69 406.02 21.28 70.96 363.76"/><polygon class="f" points="165.47 397.73 70.96 363.76 406.02 21.28 500.54 55.25 165.47 397.73"/></g></svg>